{
	"asset":{
		"version":"2.0",
		"generator":"Created using the official Cinema 4D glTF Exporter 1.000x284978"
	},
	"scenes":[{
		"nodes":[0]
	}],
	"nodes":[{
		"name":"Wardrobe",
		"children":[1,
		5,
		7,
		9,
		11,
		13,
		14,
		15,
		16,
		17,
		18,
		19,
		20]
	},
	{
		"name":"DoorRM",
		"translation":[-136.02308654785157,
		98.57166290283203,
		-101.22588348388672],
		"rotation":[0.0,
		0.0,
		0.0,
		-1.0],
		"scale":[0.5,
		1.0,
		1.0],
		"children":[2,
		3,
		4]
	},
	{
		"name":"DoorRM-Mirror",
		"mesh":0
	},
	{
		"name":"DoorRM-Wardrobe.1",
		"mesh":1
	},
	{
		"name":"Handle",
		"translation":[246.19297790527345,
		121.690673828125,
		-2.0],
		"rotation":[0.0,
		0.0,
		0.0,
		-1.0],
		"scale":[2.0,
		1.0,
		1.0],
		"mesh":2
	},
	{
		"name":"DoorL",
		"translation":[135.96246337890626,
		98.57166290283203,
		-101.22588348388672],
		"rotation":[0.0,
		0.0,
		0.0,
		-1.0],
		"scale":[0.5,
		1.0,
		1.0],
		"mesh":3,
		"children":[6]
	},
	{
		"name":"Handle",
		"translation":[-246.1242218017578,
		121.690673828125,
		-2.0],
		"rotation":[0.0,
		0.0,
		0.0,
		-1.0],
		"scale":[2.0,
		1.0,
		1.0],
		"mesh":4
	},
	{
		"name":"DoorR",
		"translation":[-136.02308654785157,
		98.57166290283203,
		-101.22588348388672],
		"rotation":[0.0,
		0.0,
		0.0,
		-1.0],
		"scale":[0.5,
		1.0,
		1.0],
		"mesh":5,
		"children":[8]
	},
	{
		"name":"Handle",
		"translation":[246.19297790527345,
		121.690673828125,
		-2.0],
		"rotation":[0.0,
		0.0,
		0.0,
		-1.0],
		"scale":[2.0,
		1.0,
		1.0],
		"mesh":6
	},
	{
		"name":"DrawerL",
		"translation":[67.95092010498047,
		0.0,
		-52.44352340698242],
		"rotation":[0.0,
		0.0,
		0.0,
		-1.0],
		"scale":[1.0,
		1.0,
		1.0],
		"mesh":7,
		"children":[10]
	},
	{
		"name":"Handle",
		"translation":[-2.0111002922058107,
		50.262332916259769,
		-52.10432052612305],
		"rotation":[0.0,
		0.0,
		0.0,
		-1.0],
		"scale":[1.0,
		1.0,
		1.0],
		"mesh":8
	},
	{
		"name":"DrawerR",
		"translation":[-68.01154327392578,
		0.0,
		-52.44352340698242],
		"rotation":[0.0,
		0.0,
		0.0,
		-1.0],
		"scale":[1.0,
		1.0,
		1.0],
		"mesh":9,
		"children":[12]
	},
	{
		"name":"Handle",
		"translation":[-2.0111002922058107,
		50.262332916259769,
		-52.10432052612305],
		"rotation":[0.0,
		0.0,
		0.0,
		-1.0],
		"scale":[1.0,
		1.0,
		1.0],
		"mesh":10
	},
	{
		"name":"Splitter",
		"translation":[-2.282808542251587,
		0.0,
		0.0],
		"rotation":[0.0,
		0.0,
		0.0,
		-1.0],
		"scale":[1.0,
		1.0,
		1.0],
		"mesh":11
	},
	{
		"name":"ShelfLevel_0",
		"translation":[0.0,
		95.0,
		0.0],
		"rotation":[0.0,
		0.0,
		0.0,
		-1.0],
		"scale":[1.0,
		1.0,
		1.0],
		"mesh":12
	},
	{
		"name":"Cover",
		"translation":[0.0,
		95.0,
		0.0],
		"rotation":[0.0,
		0.0,
		0.0,
		-1.0],
		"scale":[1.0,
		1.0,
		1.0],
		"mesh":13
	},
	{
		"name":"Top",
		"translation":[0.0,
		349.8879699707031,
		0.0],
		"rotation":[0.0,
		0.0,
		0.0,
		-1.0],
		"scale":[1.0,
		1.0,
		1.0],
		"mesh":14
	},
	{
		"name":"Back",
		"translation":[-6.1232337864698068e-15,
		0.0,
		100.0],
		"rotation":[0.0,
		0.0,
		0.0,
		-1.0],
		"scale":[1.0,
		1.0,
		1.0],
		"mesh":15
	},
	{
		"name":"Left",
		"translation":[133.8416290283203,
		0.0,
		0.0],
		"rotation":[0.0,
		0.0,
		0.0,
		-1.0],
		"scale":[1.0,
		1.0,
		1.0],
		"mesh":16
	},
	{
		"name":"Bottom",
		"mesh":17
	},
	{
		"name":"Right",
		"translation":[-133.7402801513672,
		0.0,
		0.0],
		"rotation":[0.0,
		0.0,
		0.0,
		-1.0],
		"scale":[1.0,
		1.0,
		1.0],
		"mesh":18
	}],
	"meshes":[{
		"name":"DoorRM-Mirror",
		"primitives":[{
			"attributes":{
				"POSITION":1,
				"NORMAL":2,
				"TEXCOORD_0":3
			},
			"indices":0,
			"material":0
		}]
	},
	{
		"name":"DoorRM-Wardrobe.1",
		"primitives":[{
			"attributes":{
				"POSITION":5,
				"NORMAL":6,
				"TEXCOORD_0":7
			},
			"indices":4,
			"material":1
		}]
	},
	{
		"name":"Handle",
		"primitives":[{
			"attributes":{
				"POSITION":9,
				"NORMAL":10,
				"TEXCOORD_0":11
			},
			"indices":8,
			"material":2
		}]
	},
	{
		"name":"DoorL",
		"primitives":[{
			"attributes":{
				"POSITION":13,
				"NORMAL":14,
				"TEXCOORD_0":15
			},
			"indices":12,
			"material":1
		}]
	},
	{
		"name":"Handle",
		"primitives":[{
			"attributes":{
				"POSITION":17,
				"NORMAL":18,
				"TEXCOORD_0":19
			},
			"indices":16,
			"material":2
		}]
	},
	{
		"name":"DoorR",
		"primitives":[{
			"attributes":{
				"POSITION":21,
				"NORMAL":22,
				"TEXCOORD_0":23
			},
			"indices":20,
			"material":1
		}]
	},
	{
		"name":"Handle",
		"primitives":[{
			"attributes":{
				"POSITION":25,
				"NORMAL":26,
				"TEXCOORD_0":27
			},
			"indices":24,
			"material":2
		}]
	},
	{
		"name":"DrawerL",
		"primitives":[{
			"attributes":{
				"POSITION":29,
				"NORMAL":30,
				"TEXCOORD_0":31
			},
			"indices":28,
			"material":1
		}]
	},
	{
		"name":"Handle",
		"primitives":[{
			"attributes":{
				"POSITION":33,
				"NORMAL":34,
				"TEXCOORD_0":35
			},
			"indices":32,
			"material":2
		}]
	},
	{
		"name":"DrawerR",
		"primitives":[{
			"attributes":{
				"POSITION":37,
				"NORMAL":38,
				"TEXCOORD_0":39
			},
			"indices":36,
			"material":1
		}]
	},
	{
		"name":"Handle",
		"primitives":[{
			"attributes":{
				"POSITION":41,
				"NORMAL":42,
				"TEXCOORD_0":43
			},
			"indices":40,
			"material":2
		}]
	},
	{
		"name":"Splitter",
		"primitives":[{
			"attributes":{
				"POSITION":45,
				"NORMAL":46,
				"TEXCOORD_0":47
			},
			"indices":44,
			"material":1
		}]
	},
	{
		"name":"ShelfLevel_0",
		"primitives":[{
			"attributes":{
				"POSITION":49,
				"NORMAL":50,
				"TEXCOORD_0":51
			},
			"indices":48,
			"material":1
		}]
	},
	{
		"name":"Cover",
		"primitives":[{
			"attributes":{
				"POSITION":53,
				"NORMAL":54,
				"TEXCOORD_0":55
			},
			"indices":52,
			"material":1
		}]
	},
	{
		"name":"Top",
		"primitives":[{
			"attributes":{
				"POSITION":57,
				"NORMAL":58,
				"TEXCOORD_0":59
			},
			"indices":56,
			"material":1
		}]
	},
	{
		"name":"Back",
		"primitives":[{
			"attributes":{
				"POSITION":61,
				"NORMAL":62,
				"TEXCOORD_0":63
			},
			"indices":60,
			"material":1
		}]
	},
	{
		"name":"Left",
		"primitives":[{
			"attributes":{
				"POSITION":65,
				"NORMAL":66,
				"TEXCOORD_0":67
			},
			"indices":64,
			"material":1
		}]
	},
	{
		"name":"Bottom",
		"primitives":[{
			"attributes":{
				"POSITION":69,
				"NORMAL":70,
				"TEXCOORD_0":71
			},
			"indices":68,
			"material":1
		}]
	},
	{
		"name":"Right",
		"primitives":[{
			"attributes":{
				"POSITION":73,
				"NORMAL":74,
				"TEXCOORD_0":75
			},
			"indices":72,
			"material":1
		}]
	}],
	"accessors":[{
		"bufferView":0,
		"type":"SCALAR",
		"componentType":5123,
		"count":6,
		"byteOffset":0,
		"min":[0],
		"max":[3]
	},
	{
		"bufferView":1,
		"type":"VEC3",
		"componentType":5126,
		"count":4,
		"byteOffset":0,
		"min":[45.29999923706055,
		19.00779914855957,
		0.8291867971420288],
		"max":[226.23800659179688,
		236.4257049560547,
		0.8291867971420288]
	},
	{
		"bufferView":1,
		"type":"VEC3",
		"componentType":5126,
		"count":4,
		"byteOffset":12,
		"min":[0.0,
		0.0,
		-1.0],
		"max":[0.0,
		0.0,
		-1.0]
	},
	{
		"bufferView":1,
		"type":"VEC2",
		"componentType":5126,
		"count":4,
		"byteOffset":24,
		"min":[0.17734554409980775,
		0.1668274700641632],
		"max":[0.8226543664932251,
		0.8331724405288696]
	},
	{
		"bufferView":2,
		"type":"SCALAR",
		"componentType":5123,
		"count":78,
		"byteOffset":0,
		"min":[0],
		"max":[43]
	},
	{
		"bufferView":3,
		"type":"VEC3",
		"componentType":5126,
		"count":44,
		"byteOffset":0,
		"min":[0.0,
		0.0,
		-2.282808542251587],
		"max":[271.5379943847656,
		255.43350219726563,
		2.282808542251587]
	},
	{
		"bufferView":3,
		"type":"VEC3",
		"componentType":5126,
		"count":44,
		"byteOffset":12,
		"min":[-1.0,
		-1.0,
		-1.0],
		"max":[1.0,
		1.0,
		1.0]
	},
	{
		"bufferView":3,
		"type":"VEC2",
		"componentType":5126,
		"count":44,
		"byteOffset":24,
		"min":[0.0,
		0.0],
		"max":[1.0,
		1.0]
	},
	{
		"bufferView":4,
		"type":"SCALAR",
		"componentType":5123,
		"count":672,
		"byteOffset":0,
		"min":[0],
		"max":[182]
	},
	{
		"bufferView":5,
		"type":"VEC3",
		"componentType":5126,
		"count":183,
		"byteOffset":0,
		"min":[-7.840232849121094,
		-7.840232849121094,
		-6.880959987640381],
		"max":[7.840232849121094,
		7.840232849121094,
		0.0]
	},
	{
		"bufferView":5,
		"type":"VEC3",
		"componentType":5126,
		"count":183,
		"byteOffset":12,
		"min":[-1.0,
		-1.0,
		-1.0],
		"max":[1.0,
		1.0,
		1.0]
	},
	{
		"bufferView":5,
		"type":"VEC2",
		"componentType":5126,
		"count":183,
		"byteOffset":24,
		"min":[0.0,
		0.0],
		"max":[1.0,
		1.0]
	},
	{
		"bufferView":6,
		"type":"SCALAR",
		"componentType":5123,
		"count":36,
		"byteOffset":0,
		"min":[0],
		"max":[23]
	},
	{
		"bufferView":7,
		"type":"VEC3",
		"componentType":5126,
		"count":24,
		"byteOffset":0,
		"min":[-271.53704833984377,
		0.0,
		-2.282808542251587],
		"max":[0.0,
		255.43350219726563,
		2.282808542251587]
	},
	{
		"bufferView":7,
		"type":"VEC3",
		"componentType":5126,
		"count":24,
		"byteOffset":12,
		"min":[-1.0,
		-1.0,
		-1.0],
		"max":[1.0,
		1.0,
		1.0]
	},
	{
		"bufferView":7,
		"type":"VEC2",
		"componentType":5126,
		"count":24,
		"byteOffset":24,
		"min":[0.0,
		0.0],
		"max":[1.0,
		1.0]
	},
	{
		"bufferView":8,
		"type":"SCALAR",
		"componentType":5123,
		"count":672,
		"byteOffset":0,
		"min":[0],
		"max":[199]
	},
	{
		"bufferView":9,
		"type":"VEC3",
		"componentType":5126,
		"count":200,
		"byteOffset":0,
		"min":[-7.840232849121094,
		-7.840232849121094,
		-6.880959987640381],
		"max":[7.840232849121094,
		7.840232849121094,
		0.0]
	},
	{
		"bufferView":9,
		"type":"VEC3",
		"componentType":5126,
		"count":200,
		"byteOffset":12,
		"min":[-1.0,
		-1.0,
		-1.0],
		"max":[1.0,
		1.0,
		1.0]
	},
	{
		"bufferView":9,
		"type":"VEC2",
		"componentType":5126,
		"count":200,
		"byteOffset":24,
		"min":[0.0,
		0.0],
		"max":[1.0,
		1.0]
	},
	{
		"bufferView":10,
		"type":"SCALAR",
		"componentType":5123,
		"count":36,
		"byteOffset":0,
		"min":[0],
		"max":[23]
	},
	{
		"bufferView":11,
		"type":"VEC3",
		"componentType":5126,
		"count":24,
		"byteOffset":0,
		"min":[0.0,
		0.0,
		-2.282808542251587],
		"max":[271.5379943847656,
		255.43350219726563,
		2.282808542251587]
	},
	{
		"bufferView":11,
		"type":"VEC3",
		"componentType":5126,
		"count":24,
		"byteOffset":12,
		"min":[-1.0,
		-1.0,
		-1.0],
		"max":[1.0,
		1.0,
		1.0]
	},
	{
		"bufferView":11,
		"type":"VEC2",
		"componentType":5126,
		"count":24,
		"byteOffset":24,
		"min":[0.0,
		0.0],
		"max":[1.0,
		1.0]
	},
	{
		"bufferView":12,
		"type":"SCALAR",
		"componentType":5123,
		"count":672,
		"byteOffset":0,
		"min":[0],
		"max":[182]
	},
	{
		"bufferView":13,
		"type":"VEC3",
		"componentType":5126,
		"count":183,
		"byteOffset":0,
		"min":[-7.840232849121094,
		-7.840232849121094,
		-6.880959987640381],
		"max":[7.840232849121094,
		7.840232849121094,
		0.0]
	},
	{
		"bufferView":13,
		"type":"VEC3",
		"componentType":5126,
		"count":183,
		"byteOffset":12,
		"min":[-1.0,
		-1.0,
		-1.0],
		"max":[1.0,
		1.0,
		1.0]
	},
	{
		"bufferView":13,
		"type":"VEC2",
		"componentType":5126,
		"count":183,
		"byteOffset":24,
		"min":[0.0,
		0.0],
		"max":[1.0,
		1.0]
	},
	{
		"bufferView":14,
		"type":"SCALAR",
		"componentType":5123,
		"count":132,
		"byteOffset":0,
		"min":[0],
		"max":[71]
	},
	{
		"bufferView":15,
		"type":"VEC3",
		"componentType":5126,
		"count":72,
		"byteOffset":0,
		"min":[-68.01154327392578,
		0.0,
		-52.10432052612305],
		"max":[68.01154327392578,
		97.38623809814453,
		52.10432052612305]
	},
	{
		"bufferView":15,
		"type":"VEC3",
		"componentType":5126,
		"count":72,
		"byteOffset":12,
		"min":[-1.0,
		-1.0,
		-1.0],
		"max":[1.0,
		1.0,
		1.0]
	},
	{
		"bufferView":15,
		"type":"VEC2",
		"componentType":5126,
		"count":72,
		"byteOffset":24,
		"min":[0.0,
		0.0],
		"max":[1.0,
		1.0]
	},
	{
		"bufferView":16,
		"type":"SCALAR",
		"componentType":5123,
		"count":672,
		"byteOffset":0,
		"min":[0],
		"max":[199]
	},
	{
		"bufferView":17,
		"type":"VEC3",
		"componentType":5126,
		"count":200,
		"byteOffset":0,
		"min":[-7.840232849121094,
		-7.840232849121094,
		-6.880959987640381],
		"max":[7.840232849121094,
		7.840232849121094,
		0.0]
	},
	{
		"bufferView":17,
		"type":"VEC3",
		"componentType":5126,
		"count":200,
		"byteOffset":12,
		"min":[-1.0,
		-1.0,
		-1.0],
		"max":[1.0,
		1.0,
		1.0]
	},
	{
		"bufferView":17,
		"type":"VEC2",
		"componentType":5126,
		"count":200,
		"byteOffset":24,
		"min":[0.0,
		0.0],
		"max":[1.0,
		1.0]
	},
	{
		"bufferView":18,
		"type":"SCALAR",
		"componentType":5123,
		"count":132,
		"byteOffset":0,
		"min":[0],
		"max":[71]
	},
	{
		"bufferView":19,
		"type":"VEC3",
		"componentType":5126,
		"count":72,
		"byteOffset":0,
		"min":[-68.01154327392578,
		0.0,
		-52.10432052612305],
		"max":[68.01154327392578,
		97.38623809814453,
		52.10432052612305]
	},
	{
		"bufferView":19,
		"type":"VEC3",
		"componentType":5126,
		"count":72,
		"byteOffset":12,
		"min":[-1.0,
		-1.0,
		-1.0],
		"max":[1.0,
		1.0,
		1.0]
	},
	{
		"bufferView":19,
		"type":"VEC2",
		"componentType":5126,
		"count":72,
		"byteOffset":24,
		"min":[0.0,
		0.0],
		"max":[1.0,
		1.0]
	},
	{
		"bufferView":20,
		"type":"SCALAR",
		"componentType":5123,
		"count":672,
		"byteOffset":0,
		"min":[0],
		"max":[199]
	},
	{
		"bufferView":21,
		"type":"VEC3",
		"componentType":5126,
		"count":200,
		"byteOffset":0,
		"min":[-7.840232849121094,
		-7.840232849121094,
		-6.880959987640381],
		"max":[7.840232849121094,
		7.840232849121094,
		0.0]
	},
	{
		"bufferView":21,
		"type":"VEC3",
		"componentType":5126,
		"count":200,
		"byteOffset":12,
		"min":[-1.0,
		-1.0,
		-1.0],
		"max":[1.0,
		1.0,
		1.0]
	},
	{
		"bufferView":21,
		"type":"VEC2",
		"componentType":5126,
		"count":200,
		"byteOffset":24,
		"min":[0.0,
		0.0],
		"max":[1.0,
		1.0]
	},
	{
		"bufferView":22,
		"type":"SCALAR",
		"componentType":5123,
		"count":36,
		"byteOffset":0,
		"min":[0],
		"max":[23]
	},
	{
		"bufferView":23,
		"type":"VEC3",
		"componentType":5126,
		"count":24,
		"byteOffset":0,
		"min":[-2.282808542251587,
		0.0,
		-100.0],
		"max":[2.282808542251587,
		97.38623809814453,
		100.0]
	},
	{
		"bufferView":23,
		"type":"VEC3",
		"componentType":5126,
		"count":24,
		"byteOffset":12,
		"min":[-1.0,
		-1.0,
		-1.0],
		"max":[1.0,
		1.0,
		1.0]
	},
	{
		"bufferView":23,
		"type":"VEC2",
		"componentType":5126,
		"count":24,
		"byteOffset":24,
		"min":[0.0,
		0.0],
		"max":[1.0,
		1.0]
	},
	{
		"bufferView":24,
		"type":"SCALAR",
		"componentType":5123,
		"count":36,
		"byteOffset":0,
		"min":[0],
		"max":[23]
	},
	{
		"bufferView":25,
		"type":"VEC3",
		"componentType":5126,
		"count":24,
		"byteOffset":0,
		"min":[-131.53976440429688,
		0.0,
		-100.0],
		"max":[131.53976440429688,
		4.565617084503174,
		100.0]
	},
	{
		"bufferView":25,
		"type":"VEC3",
		"componentType":5126,
		"count":24,
		"byteOffset":12,
		"min":[-1.0,
		-1.0,
		-1.0],
		"max":[1.0,
		1.0,
		1.0]
	},
	{
		"bufferView":25,
		"type":"VEC2",
		"componentType":5126,
		"count":24,
		"byteOffset":24,
		"min":[0.0,
		0.0],
		"max":[1.0,
		1.0]
	},
	{
		"bufferView":26,
		"type":"SCALAR",
		"componentType":5123,
		"count":36,
		"byteOffset":0,
		"min":[0],
		"max":[23]
	},
	{
		"bufferView":27,
		"type":"VEC3",
		"componentType":5126,
		"count":24,
		"byteOffset":0,
		"min":[-131.53976440429688,
		0.0,
		-100.0],
		"max":[131.53976440429688,
		4.565617084503174,
		100.0]
	},
	{
		"bufferView":27,
		"type":"VEC3",
		"componentType":5126,
		"count":24,
		"byteOffset":12,
		"min":[-1.0,
		-1.0,
		-1.0],
		"max":[1.0,
		1.0,
		1.0]
	},
	{
		"bufferView":27,
		"type":"VEC2",
		"componentType":5126,
		"count":24,
		"byteOffset":24,
		"min":[0.0,
		0.0],
		"max":[1.0,
		1.0]
	},
	{
		"bufferView":28,
		"type":"SCALAR",
		"componentType":5123,
		"count":36,
		"byteOffset":0,
		"min":[0],
		"max":[23]
	},
	{
		"bufferView":29,
		"type":"VEC3",
		"componentType":5126,
		"count":24,
		"byteOffset":0,
		"min":[-131.53976440429688,
		0.0,
		-100.0],
		"max":[131.53976440429688,
		4.565617084503174,
		100.0]
	},
	{
		"bufferView":29,
		"type":"VEC3",
		"componentType":5126,
		"count":24,
		"byteOffset":12,
		"min":[-1.0,
		-1.0,
		-1.0],
		"max":[1.0,
		1.0,
		1.0]
	},
	{
		"bufferView":29,
		"type":"VEC2",
		"componentType":5126,
		"count":24,
		"byteOffset":24,
		"min":[0.0,
		0.0],
		"max":[1.0,
		1.0]
	},
	{
		"bufferView":30,
		"type":"SCALAR",
		"componentType":5123,
		"count":36,
		"byteOffset":0,
		"min":[0],
		"max":[23]
	},
	{
		"bufferView":31,
		"type":"VEC3",
		"componentType":5126,
		"count":24,
		"byteOffset":0,
		"min":[-134.71714782714845,
		-1.3978170476486953e-16,
		-2.282808542251587],
		"max":[134.71714782714845,
		354.4672546386719,
		2.282808542251587]
	},
	{
		"bufferView":31,
		"type":"VEC3",
		"componentType":5126,
		"count":24,
		"byteOffset":12,
		"min":[-1.0,
		-1.0,
		-1.0],
		"max":[1.0,
		1.0,
		1.0]
	},
	{
		"bufferView":31,
		"type":"VEC2",
		"componentType":5126,
		"count":24,
		"byteOffset":24,
		"min":[0.0,
		0.0],
		"max":[1.0,
		1.0]
	},
	{
		"bufferView":32,
		"type":"SCALAR",
		"componentType":5123,
		"count":36,
		"byteOffset":0,
		"min":[0],
		"max":[23]
	},
	{
		"bufferView":33,
		"type":"VEC3",
		"componentType":5126,
		"count":24,
		"byteOffset":0,
		"min":[-2.282808542251587,
		-1.3978170476486953e-16,
		-100.0],
		"max":[2.282808542251587,
		354.4672546386719,
		100.0]
	},
	{
		"bufferView":33,
		"type":"VEC3",
		"componentType":5126,
		"count":24,
		"byteOffset":12,
		"min":[-1.0,
		-1.0,
		-1.0],
		"max":[1.0,
		1.0,
		1.0]
	},
	{
		"bufferView":33,
		"type":"VEC2",
		"componentType":5126,
		"count":24,
		"byteOffset":24,
		"min":[0.0,
		0.0],
		"max":[1.0,
		1.0]
	},
	{
		"bufferView":34,
		"type":"SCALAR",
		"componentType":5123,
		"count":36,
		"byteOffset":0,
		"min":[0],
		"max":[23]
	},
	{
		"bufferView":35,
		"type":"VEC3",
		"componentType":5126,
		"count":24,
		"byteOffset":0,
		"min":[-131.53976440429688,
		0.0,
		-100.0],
		"max":[131.53976440429688,
		4.565617084503174,
		100.0]
	},
	{
		"bufferView":35,
		"type":"VEC3",
		"componentType":5126,
		"count":24,
		"byteOffset":12,
		"min":[-1.0,
		-1.0,
		-1.0],
		"max":[1.0,
		1.0,
		1.0]
	},
	{
		"bufferView":35,
		"type":"VEC2",
		"componentType":5126,
		"count":24,
		"byteOffset":24,
		"min":[0.0,
		0.0],
		"max":[1.0,
		1.0]
	},
	{
		"bufferView":36,
		"type":"SCALAR",
		"componentType":5123,
		"count":36,
		"byteOffset":0,
		"min":[0],
		"max":[23]
	},
	{
		"bufferView":37,
		"type":"VEC3",
		"componentType":5126,
		"count":24,
		"byteOffset":0,
		"min":[-2.282808542251587,
		-1.3978170476486953e-16,
		-100.0],
		"max":[2.282808542251587,
		354.4672546386719,
		100.0]
	},
	{
		"bufferView":37,
		"type":"VEC3",
		"componentType":5126,
		"count":24,
		"byteOffset":12,
		"min":[-1.0,
		-1.0,
		-1.0],
		"max":[1.0,
		1.0,
		1.0]
	},
	{
		"bufferView":37,
		"type":"VEC2",
		"componentType":5126,
		"count":24,
		"byteOffset":24,
		"min":[0.0,
		0.0],
		"max":[1.0,
		1.0]
	}],
	"bufferViews":[{
		"buffer":0,
		"byteOffset":0,
		"byteLength":12,
		"target":34963
	},
	{
		"buffer":0,
		"byteOffset":12,
		"byteLength":128,
		"target":34962,
		"byteStride":32
	},
	{
		"buffer":1,
		"byteOffset":0,
		"byteLength":156,
		"target":34963
	},
	{
		"buffer":1,
		"byteOffset":156,
		"byteLength":1408,
		"target":34962,
		"byteStride":32
	},
	{
		"buffer":2,
		"byteOffset":0,
		"byteLength":1344,
		"target":34963
	},
	{
		"buffer":2,
		"byteOffset":1344,
		"byteLength":5856,
		"target":34962,
		"byteStride":32
	},
	{
		"buffer":3,
		"byteOffset":0,
		"byteLength":72,
		"target":34963
	},
	{
		"buffer":3,
		"byteOffset":72,
		"byteLength":768,
		"target":34962,
		"byteStride":32
	},
	{
		"buffer":4,
		"byteOffset":0,
		"byteLength":1344,
		"target":34963
	},
	{
		"buffer":4,
		"byteOffset":1344,
		"byteLength":6400,
		"target":34962,
		"byteStride":32
	},
	{
		"buffer":5,
		"byteOffset":0,
		"byteLength":72,
		"target":34963
	},
	{
		"buffer":5,
		"byteOffset":72,
		"byteLength":768,
		"target":34962,
		"byteStride":32
	},
	{
		"buffer":6,
		"byteOffset":0,
		"byteLength":1344,
		"target":34963
	},
	{
		"buffer":6,
		"byteOffset":1344,
		"byteLength":5856,
		"target":34962,
		"byteStride":32
	},
	{
		"buffer":7,
		"byteOffset":0,
		"byteLength":264,
		"target":34963
	},
	{
		"buffer":7,
		"byteOffset":264,
		"byteLength":2304,
		"target":34962,
		"byteStride":32
	},
	{
		"buffer":8,
		"byteOffset":0,
		"byteLength":1344,
		"target":34963
	},
	{
		"buffer":8,
		"byteOffset":1344,
		"byteLength":6400,
		"target":34962,
		"byteStride":32
	},
	{
		"buffer":9,
		"byteOffset":0,
		"byteLength":264,
		"target":34963
	},
	{
		"buffer":9,
		"byteOffset":264,
		"byteLength":2304,
		"target":34962,
		"byteStride":32
	},
	{
		"buffer":10,
		"byteOffset":0,
		"byteLength":1344,
		"target":34963
	},
	{
		"buffer":10,
		"byteOffset":1344,
		"byteLength":6400,
		"target":34962,
		"byteStride":32
	},
	{
		"buffer":11,
		"byteOffset":0,
		"byteLength":72,
		"target":34963
	},
	{
		"buffer":11,
		"byteOffset":72,
		"byteLength":768,
		"target":34962,
		"byteStride":32
	},
	{
		"buffer":12,
		"byteOffset":0,
		"byteLength":72,
		"target":34963
	},
	{
		"buffer":12,
		"byteOffset":72,
		"byteLength":768,
		"target":34962,
		"byteStride":32
	},
	{
		"buffer":13,
		"byteOffset":0,
		"byteLength":72,
		"target":34963
	},
	{
		"buffer":13,
		"byteOffset":72,
		"byteLength":768,
		"target":34962,
		"byteStride":32
	},
	{
		"buffer":14,
		"byteOffset":0,
		"byteLength":72,
		"target":34963
	},
	{
		"buffer":14,
		"byteOffset":72,
		"byteLength":768,
		"target":34962,
		"byteStride":32
	},
	{
		"buffer":15,
		"byteOffset":0,
		"byteLength":72,
		"target":34963
	},
	{
		"buffer":15,
		"byteOffset":72,
		"byteLength":768,
		"target":34962,
		"byteStride":32
	},
	{
		"buffer":16,
		"byteOffset":0,
		"byteLength":72,
		"target":34963
	},
	{
		"buffer":16,
		"byteOffset":72,
		"byteLength":768,
		"target":34962,
		"byteStride":32
	},
	{
		"buffer":17,
		"byteOffset":0,
		"byteLength":72,
		"target":34963
	},
	{
		"buffer":17,
		"byteOffset":72,
		"byteLength":768,
		"target":34962,
		"byteStride":32
	},
	{
		"buffer":18,
		"byteOffset":0,
		"byteLength":72,
		"target":34963
	},
	{
		"buffer":18,
		"byteOffset":72,
		"byteLength":768,
		"target":34962,
		"byteStride":32
	}],
	"buffers":[{
		"uri":"data:application/octet-stream;base64,",
		"byteLength":140
	},
	{
		"uri":"data:application/octet-stream;base64,",
		"byteLength":1564
	},
	{
		"uri":"data:application/octet-stream;base64,",
		"byteLength":7200
	},
	{
		"uri":"data:application/octet-stream;base64,",
		"byteLength":840
	},
	{
		"uri":"data:application/octet-stream;base64,",
		"byteLength":7744
	},
	{
		"uri":"data:application/octet-stream;base64,",
		"byteLength":840
	},
	{
		"uri":"data:application/octet-stream;base64,",
		"byteLength":7200
	},
	{
		"uri":"data:application/octet-stream;base64,",
		"byteLength":2568
	},
	{
		"uri":"data:application/octet-stream;base64,",
		"byteLength":7744
	},
	{
		"uri":"data:application/octet-stream;base64,",
		"byteLength":2568
	},
	{
		"uri":"data:application/octet-stream;base64,",
		"byteLength":7744
	},
	{
		"uri":"data:application/octet-stream;base64,",
		"byteLength":840
	},
	{
		"uri":"data:application/octet-stream;base64,",
		"byteLength":840
	},
	{
		"uri":"data:application/octet-stream;base64,",
		"byteLength":840
	},
	{
		"uri":"data:application/octet-stream;base64,",
		"byteLength":840
	},
	{
		"uri":"data:application/octet-stream;base64,",
		"byteLength":840
	},
	{
		"uri":"data:application/octet-stream;base64,",
		"byteLength":840
	},
	{
		"uri":"data:application/octet-stream;base64,",
		"byteLength":840
	},
	{
		"uri":"data:application/octet-stream;base64,",
		"byteLength":840
	}],
	"images":[{
		"uri":"data:image/jpeg;base64,"
	},
	{
		"uri":"data:image/jpeg;base64,"
	}],
	"samplers":[{
		"magFilter":9729,
		"minFilter":9729,
		"wrapS":10497,
		"wrapT":10497
	},
	{
		"magFilter":9729,
		"minFilter":9729,
		"wrapS":10497,
		"wrapT":10497
	}],
	"textures":[{
		"sampler":0,
		"source":0
	},
	{
		"sampler":1,
		"source":1
	}],
	"materials":[{
		"pbrMetallicRoughness":{
			"baseColorFactor":[1.0,
			1.0,
			1.0,
			1.0],
			"metallicFactor":1.0,
			"roughnessFactor":0.0
		},
		"emissiveFactor":[0.0,
		0.0,
		0.0],
		"alphaMode":"OPAQUE",
		"doubleSided":false,
		"name":"Mirror"
	},
	{
		"pbrMetallicRoughness":{
			"baseColorTexture":{
				"index":0
			},
			"baseColorFactor":[0.8,
			0.8,
			0.8,
			1.0],
			"metallicFactor":0.0,
			"roughnessFactor":0.5
		},
		"normalTexture":{
			"index":1,
			"scale":1.0
		},
		"emissiveFactor":[0.0,
		0.0,
		0.0],
		"alphaMode":"OPAQUE",
		"doubleSided":false,
		"name":"Wardrobe.1"
	},
	{
		"pbrMetallicRoughness":{
			"baseColorFactor":[1.0,
			0.784,
			0.45999999999999999,
			1.0],
			"metallicFactor":0.5,
			"roughnessFactor":0.51
		},
		"emissiveFactor":[0.0,
		0.0,
		0.0],
		"alphaMode":"OPAQUE",
		"doubleSided":false,
		"name":"HandleMetal"
	}]
}